<svg fill="none" viewBox="0 0 400 169" xmlns="http://www.w3.org/2000/svg" xmlns:xlink="http://www.w3.org/1999/xlink"><clipPath id="a"><path d="m0 .311829h400v168h-400z"></path></clipPath><g clip-path="url(#a)" fill="#FE6E3F"><path d="m9.83705 163.887c6.60885 0 9.90815-3.106 9.90815-9.319s-3.2892-9.319-9.87769-9.319h-5.00483v18.648h4.97437zm-8.71022-21.755h9.22797c2.7714 0 5.1469.498 7.1164 1.492 1.9694.995 3.4922 2.417 4.5683 4.274 1.0659 1.858 1.604 4.071 1.604 6.64 0 2.568-.5381 4.883-1.6243 6.74-1.0761 1.858-2.6496 3.269-4.6901 4.254-2.0406.985-4.5379 1.472-7.46159 1.472h-8.74068v-24.862z"></path><path d="m35.7139 164.405c1.5431 0 2.8019-.528 3.7562-1.584.9644-1.055 1.4415-2.416 1.4415-4.07 0-1.655-.4771-3.046-1.4415-4.092-.9644-1.045-2.2131-1.573-3.7562-1.573-1.0253 0-1.9288.243-2.7206.721-.7817.477-1.401 1.147-1.8477 2-.4466.852-.67 1.827-.67 2.944 0 1.116.2234 2.091.67 2.944.4467.852 1.066 1.512 1.8477 1.989s1.6953.721 2.7206.721zm8.4362 2.589h-3.34l-.071-2.782c-.6091 1.046-1.4314 1.858-2.4669 2.437-1.0355.578-2.2233.862-3.5531.862-1.4822 0-2.8121-.375-3.9897-1.126-1.1776-.752-2.1014-1.787-2.7613-3.097-.67-1.309-.9948-2.812-.9948-4.517 0-1.706.3553-3.117 1.0761-4.447.7207-1.33 1.6953-2.385 2.9135-3.177 1.2182-.782 2.5887-1.178 4.0912-1.178 1.1979 0 2.2943.295 3.2891.883.9949.589 1.7969 1.401 2.406 2.457l.0711-2.812h3.3399v16.487z"></path><path d="m50.7893 153.421h-3.5328v-2.914h3.5328v-4.609h3.4719v4.609h5.5327v2.914h-5.5327v7.36c0 1.309.2335 2.254.6903 2.832.4568.579 1.1979.863 2.2232.863.5482 0 1.066-.061 1.5533-.193s1.005-.325 1.5532-.589l.3959 2.884c-.5177.304-1.1573.538-1.9187.7-.7512.162-1.543.244-2.3755.244-1.8984 0-3.2993-.508-4.2231-1.533-.9137-1.026-1.3705-2.599-1.3705-4.711v-7.847z"></path><path d="m71.8644 164.405c1.5431 0 2.8019-.528 3.7561-1.584.9645-1.055 1.4416-2.416 1.4416-4.07 0-1.655-.4771-3.046-1.4416-4.092-.9542-1.045-2.213-1.573-3.7561-1.573-1.0253 0-1.9288.243-2.7207.721-.7817.477-1.4009 1.147-1.8476 2-.4467.852-.67 1.827-.67 2.944 0 1.116.2233 2.091.67 2.944.4467.852 1.0659 1.512 1.8476 1.989s1.6954.721 2.7207.721zm8.4361 2.589h-3.3399l-.0711-2.782c-.6091 1.046-1.4314 1.858-2.4669 2.437-1.0354.578-2.2232.862-3.5531.862-1.4821 0-2.812-.375-3.9896-1.126-1.1776-.752-2.1014-1.787-2.7613-3.097-.67-1.309-.9949-2.812-.9949-4.517 0-1.706.3553-3.117 1.0761-4.447s1.6954-2.385 2.9136-3.177c1.2182-.782 2.5887-1.178 4.0911-1.178 1.1979 0 2.2943.295 3.2892.883.9949.589 1.7969 1.401 2.406 2.457l.071-2.812h3.34v16.487z"></path><path d="m94.4622 142.132h3.6343l9.0355 17.106 8.893-17.106h3.634l1.279 24.862h-3.573l-.813-19.37-7.918 15.187h-3.137l-7.9182-14.953-.8223 19.136h-3.5633z"></path><path d="m134.186 164.405c1.543 0 2.802-.528 3.756-1.584.965-1.055 1.442-2.416 1.442-4.07 0-1.655-.477-3.046-1.442-4.092-.964-1.045-2.213-1.573-3.756-1.573-1.025 0-1.929.243-2.721.721-.781.477-1.401 1.147-1.847 2-.447.852-.67 1.827-.67 2.944 0 1.116.223 2.091.67 2.944.446.852 1.066 1.512 1.847 1.989.782.477 1.696.721 2.721.721zm8.436 2.589h-3.34l-.071-2.782c-.609 1.046-1.431 1.858-2.467 2.437-1.035.578-2.223.862-3.553.862-1.482 0-2.812-.375-3.989-1.126-1.178-.752-2.102-1.787-2.762-3.097-.67-1.309-.995-2.812-.995-4.517 0-1.706.356-3.117 1.077-4.447.72-1.33 1.685-2.385 2.913-3.177 1.218-.782 2.589-1.178 4.091-1.178 1.198 0 2.295.295 3.289.883.995.589 1.797 1.401 2.406 2.457l.071-2.812h3.34v16.487z"></path><path d="m155.779 164.405c1.543 0 2.802-.528 3.756-1.584.964-1.055 1.442-2.416 1.442-4.071 0-1.654-.478-3.045-1.442-4.091-.964-1.045-2.213-1.573-3.756-1.573-1.025 0-1.929.243-2.721.721-.781.477-1.401 1.147-1.847 1.999-.447.853-.67 1.828-.67 2.944 0 1.117.223 2.092.67 2.945.446.852 1.066 1.512 1.847 1.989.782.477 1.696.721 2.721.721zm8.436 2.589h-3.34l-.071-2.782c-.609 1.046-1.431 1.858-2.467 2.437-1.035.578-2.223.862-3.553.862-1.482 0-2.812-.375-3.99-1.126-1.177-.752-2.101-1.787-2.761-3.097-.67-1.309-.995-2.812-.995-4.517 0-1.706.356-3.117 1.076-4.447.721-1.33 1.685-2.385 2.914-3.177 1.218-.782 2.589-1.178 4.091-1.178 1.178 0 2.254.274 3.238.833.985.558 1.777 1.35 2.386 2.375v-12.7h3.472v26.496z"></path><path d="m173.575 153.939c-.832.802-1.34 1.939-1.533 3.4h9.157c0-.264-.02-.487-.061-.69-.173-1.269-.64-2.233-1.411-2.913-.761-.681-1.756-1.016-2.975-1.016-1.289 0-2.345.406-3.177 1.208m4.386 13.594c-1.919 0-3.574-.356-4.975-1.066-1.401-.711-2.467-1.716-3.228-3.005-.751-1.3-1.127-2.843-1.127-4.629 0-1.787.355-3.249 1.066-4.579s1.685-2.375 2.934-3.127c1.249-.751 2.67-1.126 4.284-1.126 1.523 0 2.853.335 3.99 1.015s2.02 1.624 2.649 2.842c.63 1.218.944 2.65.944 4.284 0 .284 0 .548-.02.802-.01.254-.041.518-.081.802h-12.365c.213 1.614.853 2.833 1.919 3.645 1.055.822 2.477 1.228 4.273 1.228 1.899 0 3.746-.426 5.564-1.279l.396 2.751c-.782.457-1.726.812-2.833 1.066-1.096.254-2.233.376-3.38.376"></path><path d="m196.995 142.132h3.766v10.436h13.705v-10.436h3.767v24.862h-3.767v-11.35h-13.705v11.35h-3.766z"></path><path d="m238.739 166.994h-3.299l-.071-2.68c-.437 1.025-1.137 1.817-2.091 2.375-.965.559-2.092.833-3.401.833-1.858 0-3.279-.569-4.274-1.716s-1.493-2.771-1.493-4.893v-10.406h3.472v9.523c0 1.573.274 2.7.833 3.38.558.69 1.472 1.036 2.731 1.036 1.258 0 2.294-.437 3.025-1.31s1.096-2.071 1.096-3.604v-9.025h3.472z"></path><path d="m244.241 150.507h3.3l.03 2.589c.457-.985 1.147-1.746 2.061-2.294.914-.549 1.969-.823 3.178-.823 2.598 0 4.355 1.158 5.268 3.472.437-1.045 1.147-1.888 2.142-2.517.995-.63 2.122-.955 3.381-.955 1.939 0 3.431.609 4.467 1.818 1.035 1.208 1.553 2.954 1.553 5.218v9.979h-3.431v-9.32c0-3.076-1.188-4.608-3.564-4.608-1.238 0-2.213.436-2.913 1.309-.701.873-1.046 2.081-1.046 3.634v8.995h-3.472v-9.36c0-3.056-1.167-4.578-3.502-4.578-1.269 0-2.254.436-2.965 1.289-.71.853-1.065 2.071-1.065 3.614v9.035h-3.432v-16.487z"></path><path d="m282.676 164.405c1.543 0 2.802-.528 3.766-1.584.965-1.055 1.442-2.416 1.442-4.07 0-1.655-.477-3.046-1.442-4.092-.964-1.045-2.213-1.573-3.766-1.573-1.025 0-1.929.243-2.721.721-.781.477-1.401 1.147-1.847 2-.447.852-.67 1.827-.67 2.944 0 1.116.223 2.091.67 2.944.446.852 1.066 1.512 1.847 1.989.782.477 1.696.721 2.721.721zm8.436 2.589h-3.34l-.071-2.782c-.609 1.046-1.431 1.858-2.467 2.437-1.035.578-2.223.862-3.553.862-1.482 0-2.812-.375-3.99-1.126-1.177-.752-2.101-1.787-2.761-3.097-.66-1.309-.995-2.812-.995-4.517 0-1.706.356-3.117 1.076-4.447.721-1.33 1.686-2.385 2.914-3.177 1.218-.782 2.578-1.178 4.091-1.178 1.198 0 2.294.295 3.289.883.995.589 1.797 1.401 2.406 2.457l.071-2.812h3.34v16.487z"></path><path d="m296.614 150.507h3.3l.03 2.68c.457-1.005 1.157-1.786 2.091-2.355.934-.568 2.021-.853 3.239-.853 1.939 0 3.431.609 4.467 1.818 1.035 1.208 1.553 2.954 1.553 5.218v9.979h-3.472v-9.32c0-3.076-1.188-4.608-3.563-4.608-1.31 0-2.335.436-3.076 1.309s-1.117 2.081-1.117 3.634v8.995h-3.472v-16.487z"></path><path d="m72.6359 72.5518-23.2678-6.091c-3.3806-.5381-5.5429-2.5684-5.5429-5.279 0-3.2485 2.1623-5.4109 5.5429-5.5428l21.7755-5.2789c29.6224-7.3093 44.2314-23.8059 43.9574-50.048271h-19.4815c0 19.887271-7.4412 28.810671-26.6484 32.323271-4.1927 1.0862-25.5621 5.9489-25.5621 5.9489-10.4157 1.6243-18.6691 11.6339-18.6691 22.5877 0 10.2837 8.1112 20.2934 18.395 22.7196 0 0 21.6435 4.4668 25.7042 5.949 18.3951 5.0048 26.5063 16.6387 26.5063 32.3237h20.0196c-.406-25.8367-14.609-42.3334-42.7392-49.6426"></path><path d="m20.5573.321838h-20.5573v121.872162h20.5573z"></path><path d="m147.972 36.7059h-19.075v85.4881h19.075z"></path><path d="m238.1 70.6534c2.842-11.644 11.227-18.801 23.288-18.801 12.06 0 20.283 6.761 22.994 18.801zm66.169 6.2231c0-24.344-17.045-41.2568-41.663-41.2568s-44.363 18.933-44.363 43.4191c0 26.1002 19.745 45.8552 44.363 45.8552 21.501 0 37.47-11.634 41.257-30.9727h-19.481c-2.711 8.7917-9.736 13.3897-21.776 13.3897-14.213 0-23.512-8.73-25.258-22.4552h66.109c.812-2.2943.812-5.0048.812-7.9793z"></path><path d="m138.369.32196c-7.706 0-13.116 5.27892-13.116 12.71004 0 8.1214 5.41 13.7962 13.116 13.7962 7.705 0 13.116-5.685 13.116-13.7962.01-7.43112-5.401-12.71004-13.116-12.71004z"></path><path d="m380.519 36.7059v47.5509c-1.584 12.2329-10.101 19.6742-22.994 19.6742-14.476 0-23.532-9.8777-23.532-25.5622v-41.6629h-19.075v43.8252c0 23.1259 16.903 41.2569 38.546 41.2569 10.497 0 22.151-4.447 27.055-12.558v9.177c0 13.523-9.33 21.908-24.344 21.908-10.954 0-19.481-5.685-19.481-14.883h-19.34c.407 17.989 17.857 32.192 39.765 32.192 24.08 0 42.881-16.903 42.881-38.547v-82.3711z"></path><path d="m164.276 73.4959v48.6981h19.339v-48.6981c0-12.71 7.441-20.2933 20.831-20.2933 4.873 0 7.848.406 10.68 1.2182v-18.1209c-3.38-.6802-7.299-.6802-13.522-.6802-23.268 0-37.328 14.4764-37.328 37.8762z"></path></g></svg>
